<svg width="18" height="16" viewBox="0 0 18 16" fill="none" xmlns="http://www.w3.org/2000/svg">
<path fill-rule="evenodd" clip-rule="evenodd" d="M2.47712 0.569824L1.37793 1.65108L15.5226 15.5698L16.6218 14.4882L2.47712 0.569824Z" fill="#333333"/>
<path d="M3.70032 3.93615L4.73492 4.95419C3.60236 5.90308 2.70051 7.08422 2.11773 8.11764L2.11595 8.12113C3.73901 10.7914 6.31431 13.3151 9.56468 12.9323C10.442 12.8289 11.2605 12.5338 12.0083 12.1116L13.0557 13.1419C11.598 14.0625 9.92705 14.55 8.1166 14.309C4.85204 13.8746 2.18268 11.2399 0.5 8.14557C1.29005 6.58131 2.37079 5.08481 3.70032 3.93615ZM6.05345 2.42741C6.9663 2.02718 7.95405 1.79179 9.00887 1.77503C9.06744 1.77468 9.76273 1.80716 10.0779 1.85815C10.2756 1.89028 10.4726 1.93044 10.6667 1.98038C13.7634 2.77421 16.0576 5.35023 17.5 8.00413C16.8949 9.20658 16.1023 10.38 15.1572 11.3855L14.1538 10.3982C14.8519 9.6578 15.434 8.83358 15.8823 8.03417C15.8823 8.03417 15.4315 7.32101 15.0897 6.87328C14.87 6.5855 14.639 6.30611 14.3962 6.03684C14.2046 5.8245 13.4603 5.10332 13.2832 4.95314C12.0949 3.94767 10.6997 3.15873 9.02626 3.172C8.37818 3.18213 7.75494 3.30786 7.16328 3.5195L6.05345 2.42741Z" fill="#333333"/>
<path fill-rule="evenodd" clip-rule="evenodd" d="M6.51656 6.70779L7.31524 7.49336L10.3895 10.5184C9.97846 10.7454 9.50428 10.8746 8.99994 10.8746C7.42942 10.8746 6.15454 9.62013 6.15454 8.07472C6.15454 7.57845 6.28622 7.11221 6.51656 6.70779ZM8.94741 5.27554C8.9648 5.27519 8.98255 5.27484 8.99994 5.27484C10.5705 5.27484 11.8453 6.52967 11.8453 8.07472C11.8453 8.09219 11.8453 8.1093 11.845 8.12641L8.94741 5.27554Z" fill="#333333"/>
</svg>
