<svg width="18" height="14" viewBox="0 0 18 14" fill="none" xmlns="http://www.w3.org/2000/svg">
<path fill-rule="evenodd" clip-rule="evenodd" d="M9.126 0.569907C12.8789 0.623998 15.9579 4.0523 17.5 7.00208C17.5 7.00208 16.9573 8.13043 16.4484 8.85273C16.2021 9.20216 15.943 9.54257 15.6707 9.87181C15.4766 10.1062 15.2761 10.3345 15.0681 10.5562C13.2094 12.5396 10.54 14.0192 7.72122 13.4447C4.58975 12.8064 2.03539 10.0802 0.5 7.14813C0.5 7.14813 1.04516 6.0187 1.55695 5.29749C1.78623 4.97402 2.02687 4.65921 2.27886 4.35377C2.47194 4.11974 2.67212 3.89147 2.87903 3.6697C4.52125 1.91137 6.62842 0.557646 9.126 0.569907ZM9.11287 2.01234C7.02238 2.00441 5.28398 3.19045 3.90866 4.66281C3.72162 4.86295 3.54132 5.06922 3.3667 5.28054C3.13706 5.55893 2.91772 5.84633 2.70867 6.14095C2.49962 6.43521 2.28525 6.80663 2.11525 7.12217C3.46891 9.43331 5.50083 11.5209 8.00054 12.0304C10.3299 12.5053 12.5038 11.2007 14.0399 9.56168C14.2276 9.36155 14.409 9.15492 14.5843 8.94324C14.8328 8.64285 15.0691 8.33237 15.2938 8.01323C15.5018 7.71789 15.7158 7.34574 15.8855 7.02985C14.4807 4.64082 12.0772 2.05922 9.11287 2.01234Z" fill="#333333"/>
<path fill-rule="evenodd" clip-rule="evenodd" d="M8.99994 4.18408C10.5705 4.18408 11.8457 5.47975 11.8457 7.07508C11.8457 8.67077 10.5705 9.96608 8.99994 9.96608C7.42977 9.96608 6.15454 8.67077 6.15454 7.07508C6.15454 5.47975 7.42977 4.18408 8.99994 4.18408Z" fill="#333333"/>
</svg>
